{
    "asset" : {
        "extensions" : {
            "ASOBO_normal_map_convention" : {
                "tangent_space_convention" : "DirectX"
            }
        },
        "generator" : "Extended Khronos glTF Blender I/O v1.0.0",
        "version" : "2.0"
    },
    "extensionsUsed" : [
        "ASOBO_normal_map_convention",
        "ASOBO_tags",
        "KHR_texture_transform"
    ],
    "extensionsRequired" : [
        "KHR_texture_transform"
    ],
    "scene" : 0,
    "scenes" : [
        {
            "name" : "Scene",
            "nodes" : [
                0,
                1,
                2,
                3,
                4,
                5,
                6,
                7,
                8
            ]
        }
    ],
    "nodes" : [
        {
            "mesh" : 0,
            "name" : "Cube",
            "scale" : [
                13,
                4.800000190734863,
                13
            ]
        },
        {
            "mesh" : 1,
            "name" : "Cube.003",
            "rotation" : [
                0,
                0.7071067690849304,
                0,
                0.7071067690849304
            ],
            "scale" : [
                0.17388933897018433,
                -4.796804428100586,
                0.17388933897018433
            ],
            "translation" : [
                -13,
                0,
                13
            ]
        },
        {
            "mesh" : 2,
            "name" : "Cube.001",
            "rotation" : [
                0,
                1,
                0,
                -4.371138828673793e-08
            ],
            "scale" : [
                0.17388933897018433,
                -4.796804428100586,
                0.17388933897018433
            ],
            "translation" : [
                13,
                0,
                13
            ]
        },
        {
            "mesh" : 3,
            "name" : "Cube.002",
            "rotation" : [
                0,
                -0.7071067690849304,
                0,
                0.7071067690849304
            ],
            "scale" : [
                0.17388933897018433,
                -4.796804428100586,
                0.17388933897018433
            ],
            "translation" : [
                13,
                0,
                -13
            ]
        },
        {
            "mesh" : 4,
            "name" : "Cube.004",
            "scale" : [
                0.17388933897018433,
                -4.796804428100586,
                0.17388933897018433
            ],
            "translation" : [
                -13,
                0,
                -13
            ]
        },
        {
            "mesh" : 5,
            "name" : "Plane",
            "scale" : [
                13,
                13,
                13
            ],
            "translation" : [
                0,
                5.800000190734863,
                0
            ]
        },
        {
            "mesh" : 6,
            "name" : "Plane.001",
            "scale" : [
                13,
                13,
                13
            ],
            "translation" : [
                0,
                4.400000095367432,
                0
            ]
        },
        {
            "mesh" : 7,
            "name" : "Plane.002",
            "scale" : [
                32.65253829956055,
                32.65253829956055,
                32.65253829956055
            ],
            "translation" : [
                0,
                -4,
                0
            ]
        },
        {
            "name" : "Camera"
        }
    ],
    "materials" : [
        {
            "doubleSided" : true,
            "emissiveFactor" : [
                0,
                0,
                0
            ],
            "name" : "Material",
            "pbrMetallicRoughness" : {
                "baseColorFactor" : [
                    0.800000011920929,
                    0.800000011920929,
                    0.800000011920929,
                    1
                ],
                "metallicFactor" : 0,
                "roughnessFactor" : 0.4000000059604645
            }
        },
        {
            "doubleSided" : true,
            "emissiveFactor" : [
                0,
                0,
                0
            ],
            "extensions" : {
                "ASOBO_tags" : {
                    "Collision" : true
                }
            },
            "name" : "supports",
            "normalTexture" : {
                "index" : 0,
                "texCoord" : 0
            },
            "occlusionTexture" : {
                "index" : 1,
                "texCoord" : 0
            },
            "pbrMetallicRoughness" : {
                "baseColorTexture" : {
                    "index" : 2,
                    "texCoord" : 0
                },
                "metallicRoughnessTexture" : {
                    "index" : 1,
                    "texCoord" : 0
                }
            }
        },
        {
            "emissiveFactor" : [
                0,
                0,
                0
            ],
            "extensions" : {
                "ASOBO_tags" : {
                    "Collision" : true
                }
            },
            "name" : "factory_wall",
            "normalTexture" : {
                "index" : 3,
                "texCoord" : 0
            },
            "occlusionTexture" : {
                "index" : 4,
                "texCoord" : 0
            },
            "pbrMetallicRoughness" : {
                "baseColorTexture" : {
                    "index" : 5,
                    "texCoord" : 0
                },
                "metallicRoughnessTexture" : {
                    "index" : 4,
                    "texCoord" : 0
                }
            }
        },
        {
            "doubleSided" : true,
            "emissiveFactor" : [
                0,
                0,
                0
            ],
            "name" : "netting",
            "pbrMetallicRoughness" : {
                "baseColorTexture" : {
                    "extensions" : {
                        "KHR_texture_transform" : {
                            "offset" : [
                                0,
                                11
                            ],
                            "scale" : [
                                -10,
                                -10
                            ]
                        }
                    },
                    "index" : 6,
                    "texCoord" : 0
                },
                "metallicFactor" : 0,
                "roughnessFactor" : 1
            }
        }
    ],
    "meshes" : [
        {
            "name" : "Cube",
            "primitives" : [
                {
                    "attributes" : {
                        "POSITION" : 0,
                        "NORMAL" : 1,
                        "TEXCOORD_0" : 2
                    },
                    "indices" : 3,
                    "material" : 0
                }
            ]
        },
        {
            "name" : "Cube.002",
            "primitives" : [
                {
                    "attributes" : {
                        "POSITION" : 4,
                        "NORMAL" : 5,
                        "TEXCOORD_0" : 6
                    },
                    "indices" : 7,
                    "material" : 1
                }
            ]
        },
        {
            "name" : "Cube.003",
            "primitives" : [
                {
                    "attributes" : {
                        "POSITION" : 8,
                        "NORMAL" : 9,
                        "TEXCOORD_0" : 10
                    },
                    "indices" : 7,
                    "material" : 1
                }
            ]
        },
        {
            "name" : "Cube.004",
            "primitives" : [
                {
                    "attributes" : {
                        "POSITION" : 11,
                        "NORMAL" : 12,
                        "TEXCOORD_0" : 13
                    },
                    "indices" : 7,
                    "material" : 1
                }
            ]
        },
        {
            "name" : "Cube.005",
            "primitives" : [
                {
                    "attributes" : {
                        "POSITION" : 14,
                        "NORMAL" : 15,
                        "TEXCOORD_0" : 16
                    },
                    "indices" : 7,
                    "material" : 1
                }
            ]
        },
        {
            "name" : "Plane",
            "primitives" : [
                {
                    "attributes" : {
                        "POSITION" : 17,
                        "NORMAL" : 18,
                        "TEXCOORD_0" : 19
                    },
                    "indices" : 20,
                    "material" : 2
                }
            ]
        },
        {
            "name" : "Plane.001",
            "primitives" : [
                {
                    "attributes" : {
                        "POSITION" : 21,
                        "NORMAL" : 22,
                        "TEXCOORD_0" : 23
                    },
                    "indices" : 24,
                    "material" : 3
                }
            ]
        },
        {
            "name" : "Plane.002",
            "primitives" : [
                {
                    "attributes" : {
                        "POSITION" : 25,
                        "NORMAL" : 26,
                        "TEXCOORD_0" : 27
                    },
                    "indices" : 28
                }
            ]
        }
    ],
    "textures" : [
        {
            "source" : 0
        },
        {
            "source" : 1
        },
        {
            "source" : 2
        },
        {
            "source" : 3
        },
        {
            "source" : 4
        },
        {
            "source" : 5
        },
        {
            "source" : 6
        }
    ],
    "images" : [
        {
            "mimeType" : "image/jpeg",
            "name" : "OldIron01_4K_Normal",
            "uri" : "OldIron01_4K_Normal.jpg"
        },
        {
            "mimeType" : "image/jpeg",
            "name" : "OldIron01_4K_Metallic",
            "uri" : "OldIron01_4K_Metallic.jpg"
        },
        {
            "mimeType" : "image/jpeg",
            "name" : "OldIron01_4K_BaseColor",
            "uri" : "OldIron01_4K_BaseColor.jpg"
        },
        {
            "mimeType" : "image/jpeg",
            "name" : "factory_wall_nor_4k",
            "uri" : "factory_wall_nor_4k.jpg"
        },
        {
            "mimeType" : "image/jpeg",
            "name" : "factory_wall_rough_4k",
            "uri" : "factory_wall_rough_4k.jpg"
        },
        {
            "mimeType" : "image/jpeg",
            "name" : "factory_wall_diff_4k",
            "uri" : "factory_wall_diff_4k.jpg"
        },
        {
            "mimeType" : "image/png",
            "name" : "p820k-compressor",
            "uri" : "p820k-compressor.png"
        }
    ],
    "accessors" : [
        {
            "bufferView" : 0,
            "componentType" : 5126,
            "count" : 24,
            "max" : [
                1,
                1,
                1
            ],
            "min" : [
                -1,
                -1,
                -1
            ],
            "type" : "VEC3"
        },
        {
            "bufferView" : 1,
            "componentType" : 5126,
            "count" : 24,
            "type" : "VEC3"
        },
        {
            "bufferView" : 2,
            "componentType" : 5126,
            "count" : 24,
            "type" : "VEC2"
        },
        {
            "bufferView" : 3,
            "componentType" : 5123,
            "count" : 36,
            "type" : "SCALAR"
        },
        {
            "bufferView" : 4,
            "componentType" : 5126,
            "count" : 40,
            "max" : [
                1.9717124700546265,
                0.8341695666313171,
                1.9717224836349487
            ],
            "min" : [
                -0.02828756533563137,
                -0.7915278673171997,
                -0.02827749215066433
            ],
            "type" : "VEC3"
        },
        {
            "bufferView" : 5,
            "componentType" : 5126,
            "count" : 40,
            "type" : "VEC3"
        },
        {
            "bufferView" : 6,
            "componentType" : 5126,
            "count" : 40,
            "type" : "VEC2"
        },
        {
            "bufferView" : 7,
            "componentType" : 5123,
            "count" : 60,
            "type" : "SCALAR"
        },
        {
            "bufferView" : 8,
            "componentType" : 5126,
            "count" : 40,
            "max" : [
                1.9717124700546265,
                0.8341695666313171,
                1.9717224836349487
            ],
            "min" : [
                -0.02828756533563137,
                -0.7915278673171997,
                -0.02827749215066433
            ],
            "type" : "VEC3"
        },
        {
            "bufferView" : 9,
            "componentType" : 5126,
            "count" : 40,
            "type" : "VEC3"
        },
        {
            "bufferView" : 10,
            "componentType" : 5126,
            "count" : 40,
            "type" : "VEC2"
        },
        {
            "bufferView" : 11,
            "componentType" : 5126,
            "count" : 40,
            "max" : [
                1.9717124700546265,
                0.8341695666313171,
                1.9717224836349487
            ],
            "min" : [
                -0.02828756533563137,
                -0.7915278673171997,
                -0.02827749215066433
            ],
            "type" : "VEC3"
        },
        {
            "bufferView" : 12,
            "componentType" : 5126,
            "count" : 40,
            "type" : "VEC3"
        },
        {
            "bufferView" : 13,
            "componentType" : 5126,
            "count" : 40,
            "type" : "VEC2"
        },
        {
            "bufferView" : 14,
            "componentType" : 5126,
            "count" : 40,
            "max" : [
                1.9717124700546265,
                0.8341695666313171,
                1.9717224836349487
            ],
            "min" : [
                -0.02828756533563137,
                -0.7915278673171997,
                -0.02827749215066433
            ],
            "type" : "VEC3"
        },
        {
            "bufferView" : 15,
            "componentType" : 5126,
            "count" : 40,
            "type" : "VEC3"
        },
        {
            "bufferView" : 16,
            "componentType" : 5126,
            "count" : 40,
            "type" : "VEC2"
        },
        {
            "bufferView" : 17,
            "componentType" : 5126,
            "count" : 94,
            "max" : [
                1,
                0.038461536169052124,
                1
            ],
            "min" : [
                -1,
                -0.1538461446762085,
                -1
            ],
            "type" : "VEC3"
        },
        {
            "bufferView" : 18,
            "componentType" : 5126,
            "count" : 94,
            "type" : "VEC3"
        },
        {
            "bufferView" : 19,
            "componentType" : 5126,
            "count" : 94,
            "type" : "VEC2"
        },
        {
            "bufferView" : 20,
            "componentType" : 5123,
            "count" : 159,
            "type" : "SCALAR"
        },
        {
            "bufferView" : 21,
            "componentType" : 5126,
            "count" : 32,
            "max" : [
                1,
                -0.034867461770772934,
                1
            ],
            "min" : [
                -1,
                -0.08487286418676376,
                -1
            ],
            "type" : "VEC3"
        },
        {
            "bufferView" : 22,
            "componentType" : 5126,
            "count" : 32,
            "type" : "VEC3"
        },
        {
            "bufferView" : 23,
            "componentType" : 5126,
            "count" : 32,
            "type" : "VEC2"
        },
        {
            "bufferView" : 24,
            "componentType" : 5123,
            "count" : 48,
            "type" : "SCALAR"
        },
        {
            "bufferView" : 25,
            "componentType" : 5126,
            "count" : 4,
            "max" : [
                1,
                0,
                1
            ],
            "min" : [
                -1,
                0,
                -1
            ],
            "type" : "VEC3"
        },
        {
            "bufferView" : 26,
            "componentType" : 5126,
            "count" : 4,
            "type" : "VEC3"
        },
        {
            "bufferView" : 27,
            "componentType" : 5126,
            "count" : 4,
            "type" : "VEC2"
        },
        {
            "bufferView" : 28,
            "componentType" : 5123,
            "count" : 6,
            "type" : "SCALAR"
        }
    ],
    "bufferViews" : [
        {
            "buffer" : 0,
            "byteLength" : 288,
            "byteOffset" : 0
        },
        {
            "buffer" : 0,
            "byteLength" : 288,
            "byteOffset" : 288
        },
        {
            "buffer" : 0,
            "byteLength" : 192,
            "byteOffset" : 576
        },
        {
            "buffer" : 0,
            "byteLength" : 72,
            "byteOffset" : 768
        },
        {
            "buffer" : 0,
            "byteLength" : 480,
            "byteOffset" : 840
        },
        {
            "buffer" : 0,
            "byteLength" : 480,
            "byteOffset" : 1320
        },
        {
            "buffer" : 0,
            "byteLength" : 320,
            "byteOffset" : 1800
        },
        {
            "buffer" : 0,
            "byteLength" : 120,
            "byteOffset" : 2120
        },
        {
            "buffer" : 0,
            "byteLength" : 480,
            "byteOffset" : 2240
        },
        {
            "buffer" : 0,
            "byteLength" : 480,
            "byteOffset" : 2720
        },
        {
            "buffer" : 0,
            "byteLength" : 320,
            "byteOffset" : 3200
        },
        {
            "buffer" : 0,
            "byteLength" : 480,
            "byteOffset" : 3520
        },
        {
            "buffer" : 0,
            "byteLength" : 480,
            "byteOffset" : 4000
        },
        {
            "buffer" : 0,
            "byteLength" : 320,
            "byteOffset" : 4480
        },
        {
            "buffer" : 0,
            "byteLength" : 480,
            "byteOffset" : 4800
        },
        {
            "buffer" : 0,
            "byteLength" : 480,
            "byteOffset" : 5280
        },
        {
            "buffer" : 0,
            "byteLength" : 320,
            "byteOffset" : 5760
        },
        {
            "buffer" : 0,
            "byteLength" : 1128,
            "byteOffset" : 6080
        },
        {
            "buffer" : 0,
            "byteLength" : 1128,
            "byteOffset" : 7208
        },
        {
            "buffer" : 0,
            "byteLength" : 752,
            "byteOffset" : 8336
        },
        {
            "buffer" : 0,
            "byteLength" : 318,
            "byteOffset" : 9088
        },
        {
            "buffer" : 0,
            "byteLength" : 384,
            "byteOffset" : 9408
        },
        {
            "buffer" : 0,
            "byteLength" : 384,
            "byteOffset" : 9792
        },
        {
            "buffer" : 0,
            "byteLength" : 256,
            "byteOffset" : 10176
        },
        {
            "buffer" : 0,
            "byteLength" : 96,
            "byteOffset" : 10432
        },
        {
            "buffer" : 0,
            "byteLength" : 48,
            "byteOffset" : 10528
        },
        {
            "buffer" : 0,
            "byteLength" : 48,
            "byteOffset" : 10576
        },
        {
            "buffer" : 0,
            "byteLength" : 32,
            "byteOffset" : 10624
        },
        {
            "buffer" : 0,
            "byteLength" : 12,
            "byteOffset" : 10656
        }
    ],
    "buffers" : [
        {
            "byteLength" : 10668,
            "uri" : "kdkxshed.bin"
        }
    ]
}
